# xmcd
#
# Track frame offsets: 
#        150
#        31250
#        48757
#        62597
#        86562
#        99121
#        116623
#        131907
#        145782
#
# Disc length: 2262 seconds
#
# Revision: 2
# Processed by: cddbd v1.5.2PL0 Copyright (c) Steve Scherf et al.
# Submitted via: ExactAudioCopy v1.1
#
DISCID=6e08d409
DTITLE=John Lee Hooker - The Real Folk Blues
DYEAR=1967
DGENRE=Blues
TTITLE0=Let's Go Out Tonight
TTITLE1=Peace Lovin' Man
TTITLE2=Stella Mae
TTITLE3=I Put My Trust In You
TTITLE4=I'm In The Mood
TTITLE5=You Know, I Know
TTITLE6=I'll Never Trust Your Love Again
TTITLE7=One Bourbon, One Scotch, One Beer
TTITLE8=The Waterfront
EXTD=
EXTT0=
EXTT1=
EXTT2=
EXTT3=
EXTT4=
EXTT5=
EXTT6=
EXTT7=
EXTT8=
PLAYORDER=
